<?xml version="1.0" standalone="no"?>
<!DOCTYPE svg PUBLIC "-//W3C//DTD SVG 20010904//EN"
 "http://www.w3.org/TR/2001/REC-SVG-20010904/DTD/svg10.dtd">
<svg version="1.0" xmlns="http://www.w3.org/2000/svg"
 width="1116.000000pt" height="1116.000000pt" viewBox="0 0 1116.000000 1116.000000"
 preserveAspectRatio="xMidYMid meet">
<metadata>
Created by potrace 1.11, written by Peter Selinger 2001-2013
</metadata>
<g transform="translate(0.000000,1116.000000) scale(0.100000,-0.100000)"
fill="#000000" stroke="none">
<path d="M2300 9880 c-25 -4 -62 -11 -83 -14 -112 -18 -280 -98 -375 -179
-180 -153 -279 -365 -286 -612 -12 -443 271 -782 717 -860 70 -12 332 -12 390
-1 15 3 37 8 50 10 13 2 53 13 90 25 310 95 529 353 572 671 18 132 -2 329
-45 443 -47 122 -172 285 -272 353 -24 16 -45 31 -48 34 -3 3 -32 20 -65 37
-71 37 -170 68 -280 87 -84 15 -289 18 -365 6z"/>
<path d="M7390 7570 c-484 -69 -836 -303 -1120 -747 -27 -43 -50 -73 -51 -68
-5 47 -7 76 -14 185 -4 69 -9 148 -10 175 -2 28 -6 97 -10 155 -4 58 -9 121
-10 140 -1 19 -3 40 -4 47 -1 9 -183 12 -771 12 l-770 -1 0 -3054 0 -3054 817
2 816 3 0 1990 c-1 1923 0 1991 18 2033 72 167 254 350 446 446 124 62 340
121 482 132 36 3 77 7 91 10 28 5 338 4 385 -1 17 -1 68 -6 115 -9 47 -4 99
-8 115 -10 17 -2 57 -7 90 -11 l60 -6 2 168 c0 92 4 377 8 633 4 256 8 533 9
616 l2 151 -86 21 c-47 12 -101 24 -120 27 -19 3 -46 8 -60 10 -43 10 -372 13
-430 5z"/>
<path d="M1650 4414 l0 -3054 820 0 820 0 0 3054 0 3055 -820 0 -820 0 0
-3055z"/>
<path d="M8765 3032 c-31 -2 -118 -17 -155 -27 -270 -71 -489 -255 -587 -495
-17 -41 -35 -93 -39 -115 -5 -22 -9 -42 -9 -45 -16 -67 -22 -219 -11 -305 23
-193 97 -348 230 -481 118 -118 234 -184 400 -230 74 -21 119 -26 246 -29 85
-2 178 0 205 5 28 4 64 11 81 14 62 11 157 47 233 86 186 97 330 264 396 459
33 96 36 120 40 266 6 245 -44 406 -177 571 -127 157 -296 260 -510 308 -71
16 -247 25 -343 18z"/>
</g>
</svg>
